<svg width="164" height="121" viewBox="0 0 164 121" fill="none" xmlns="http://www.w3.org/2000/svg">
<path d="M4.879 18.901C4.90633 22.181 6.273 24.723 8.979 26.527C9.635 26.9643 10.3183 27.347 11.029 27.675C11.767 28.003 12.4777 28.3173 13.161 28.618C13.8443 28.8913 14.5277 29.2057 15.211 29.561C15.8943 29.889 16.523 30.2853 17.097 30.75C17.3977 30.9687 17.671 31.2147 17.917 31.488C18.163 31.7613 18.368 32.0757 18.532 32.431C18.8327 33.1143 18.942 33.7703 18.86 34.399C18.8053 35.0277 18.5867 35.6563 18.204 36.285C17.876 36.8863 17.4523 37.4193 16.933 37.884C16.441 38.3487 15.908 38.786 15.334 39.196C14.5687 39.688 13.7623 40.098 12.915 40.426C12.095 40.754 11.2203 40.9317 10.291 40.959C9.389 41.041 8.54167 40.9043 7.749 40.549C7.06567 40.1663 6.601 39.647 6.355 38.991C6.13633 38.335 6.17733 37.6653 6.478 36.982C6.61467 36.6267 6.806 36.3123 7.052 36.039C7.298 35.7657 7.55767 35.506 7.831 35.26C8.35033 34.7953 8.80133 34.7543 9.184 35.137C9.594 35.4377 9.676 35.8887 9.43 36.49C9.40267 36.572 9.348 36.6677 9.266 36.777C9.21133 36.8863 9.15667 36.9957 9.102 37.105C9.02 37.2963 8.99267 37.433 9.02 37.515C9.07467 37.5697 9.21133 37.597 9.43 37.597C10.2773 37.6243 11.07 37.5013 11.808 37.228C12.4093 36.982 12.9697 36.695 13.489 36.367C14.0357 36.039 14.5277 35.629 14.965 35.137C15.3477 34.6723 15.5253 34.317 15.498 34.071C15.498 33.7977 15.2383 33.497 14.719 33.169C14.2543 32.8137 13.7487 32.5267 13.202 32.308C12.6827 32.062 12.1633 31.816 11.644 31.57C10.8513 31.2147 10.0587 30.8593 9.266 30.504C8.47333 30.1487 7.72167 29.725 7.011 29.233C6.08167 28.6043 5.248 27.8937 4.51 27.101C3.772 26.281 3.157 25.3517 2.665 24.313C2.06367 23.001 1.69467 21.5797 1.558 20.049C1.50333 18.983 1.54433 17.917 1.681 16.851C1.81767 15.785 2.10467 14.7463 2.542 13.735C2.92467 12.751 3.43033 11.8627 4.059 11.07C4.68767 10.25 5.46667 9.58033 6.396 9.061C7.43467 8.43233 8.59633 8.118 9.881 8.118C11.1657 8.118 12.423 8.71933 13.653 9.922C14.6917 10.8513 15.5253 11.9037 16.154 13.079C16.81 14.227 17.3157 15.4707 17.671 16.81C17.753 17.138 17.794 17.4797 17.794 17.835C17.8213 18.1903 17.8213 18.5593 17.794 18.942C17.7667 19.1607 17.6983 19.3657 17.589 19.557C17.4797 19.7483 17.3157 19.8987 17.097 20.008C16.6597 20.1447 16.236 20.0217 15.826 19.639C15.7167 19.5297 15.621 19.4067 15.539 19.27C15.457 19.1333 15.3887 19.0103 15.334 18.901C15.1153 18.5457 14.924 18.1767 14.76 17.794C14.596 17.4113 14.4183 17.0423 14.227 16.687C13.9537 16.0583 13.653 15.4433 13.325 14.842C12.997 14.2407 12.6143 13.6803 12.177 13.161C11.9857 12.9423 11.7943 12.7373 11.603 12.546C11.4117 12.3273 11.193 12.1497 10.947 12.013C10.1817 11.3843 9.32067 11.3023 8.364 11.767C8.036 11.9583 7.72167 12.177 7.421 12.423C7.12033 12.669 6.86067 12.956 6.642 13.284C6.15 13.8853 5.76733 14.555 5.494 15.293C5.248 16.0037 5.084 16.7553 5.002 17.548C4.97467 17.794 4.93367 18.04 4.879 18.286C4.85167 18.5047 4.85167 18.7097 4.879 18.901ZM24.7137 27.798C24.823 27.4973 24.905 27.1967 24.9597 26.896C25.0417 26.568 25.1237 26.24 25.2057 25.912C25.315 25.5293 25.4517 25.174 25.6157 24.846C25.7797 24.518 25.9984 24.2173 26.2717 23.944C26.7364 23.4793 27.2694 23.1923 27.8707 23.083C28.472 22.9737 29.0597 23.0967 29.6337 23.452C30.3444 23.9167 30.8637 24.5727 31.1917 25.42C31.5197 26.1853 31.752 26.978 31.8887 27.798C32.0527 28.618 32.1894 29.438 32.2987 30.258C32.3807 31.488 32.3807 32.7043 32.2987 33.907C32.2167 35.1097 32.1074 36.3123 31.9707 37.515C31.9434 37.7337 31.8887 37.9523 31.8067 38.171C31.752 38.3623 31.6427 38.5537 31.4787 38.745C31.342 38.9637 31.137 39.1277 30.8637 39.237C30.6177 39.3463 30.3717 39.3463 30.1257 39.237C29.661 39.1277 29.4014 38.7587 29.3467 38.13C29.2374 37.1187 29.1144 36.1073 28.9777 35.096C28.8684 34.0847 28.7454 33.0733 28.6087 32.062C28.4994 31.4607 28.431 30.873 28.4037 30.299C28.3764 29.725 28.2944 29.1647 28.1577 28.618C28.0484 28.618 27.98 28.659 27.9527 28.741C27.9254 28.7957 27.898 28.8503 27.8707 28.905C27.2694 30.299 26.7774 31.7203 26.3947 33.169C26.0394 34.5903 25.7934 36.0663 25.6567 37.597C25.6294 38.0343 25.5747 38.4717 25.4927 38.909C25.438 39.3463 25.3834 39.7837 25.3287 40.221C25.192 41.0957 24.7 41.574 23.8527 41.656C23.5247 41.656 23.2104 41.5193 22.9097 41.246C22.609 41 22.4314 40.6857 22.3767 40.303C22.2947 39.8657 22.2264 39.442 22.1717 39.032C22.1444 38.622 22.117 38.1983 22.0897 37.761C21.9804 36.8043 21.871 35.8477 21.7617 34.891C21.6524 33.907 21.5567 32.9367 21.4747 31.98C21.3654 30.8593 21.256 29.7523 21.1467 28.659C21.0374 27.5383 20.9554 26.4313 20.9007 25.338C20.846 24.354 20.805 23.3837 20.7777 22.427C20.7504 21.4703 20.7367 20.5 20.7367 19.516C20.7367 18.4773 20.7367 17.425 20.7367 16.359C20.764 15.2657 20.887 14.1997 21.1057 13.161C21.1604 12.833 21.2287 12.5187 21.3107 12.218C21.42 11.89 21.5704 11.5893 21.7617 11.316C21.9804 10.988 22.2537 10.742 22.5817 10.578C22.937 10.414 23.2787 10.4003 23.6067 10.537C24.3447 10.701 24.7137 11.234 24.7137 12.136C24.7684 13.7487 24.741 15.375 24.6317 17.015C24.5497 18.655 24.5224 20.2813 24.5497 21.894C24.577 22.878 24.577 23.862 24.5497 24.846C24.5497 25.83 24.5497 26.814 24.5497 27.798H24.7137ZM44.6141 37.843C44.4228 37.9797 44.2724 38.1573 44.1631 38.376C44.0811 38.5673 43.9718 38.7313 43.8351 38.868C43.5618 39.278 43.2611 39.6607 42.9331 40.016C42.6051 40.344 42.2088 40.6037 41.7441 40.795C40.9788 41.1503 40.1998 41.1777 39.4071 40.877C38.6418 40.549 38.1088 39.9887 37.8081 39.196C37.2068 37.6653 37.0291 36.203 37.2751 34.809C37.5484 33.415 38.1771 32.0893 39.1611 30.832C39.7078 30.1487 40.3501 29.6703 41.0881 29.397C41.8534 29.0963 42.6871 29.0417 43.5891 29.233C43.6438 29.233 43.6848 29.2467 43.7121 29.274C43.7668 29.274 43.8214 29.274 43.8761 29.274C43.9854 29.0553 44.0128 28.864 43.9581 28.7C43.9034 28.5087 43.8624 28.3173 43.8351 28.126C43.7258 27.5247 43.5891 26.9507 43.4251 26.404C43.2884 25.8573 43.1108 25.3243 42.8921 24.805C42.5641 24.0943 42.2634 23.7117 41.9901 23.657C41.7441 23.6023 41.3341 23.821 40.7601 24.313C39.8581 25.0783 39.0791 25.994 38.4231 27.06C38.2044 27.3333 38.0951 27.6067 38.0951 27.88C38.0951 28.4813 37.8081 28.864 37.2341 29.028C37.0428 29.0827 36.8104 29.0553 36.5371 28.946C36.2638 28.8367 36.0451 28.6863 35.8811 28.495C35.5258 27.9483 35.4028 27.347 35.5121 26.691C35.6214 26.0623 35.7991 25.4747 36.0451 24.928C36.2911 24.354 36.5918 23.821 36.9471 23.329C37.3298 22.7823 37.7398 22.2903 38.1771 21.853C38.6144 21.3883 39.1064 20.9783 39.6531 20.623C40.5278 20.0763 41.4708 19.844 42.4821 19.926C43.5208 19.9807 44.4364 20.459 45.2291 21.361C45.5844 21.7163 45.8578 22.1127 46.0491 22.55C46.2678 22.96 46.4728 23.3973 46.6641 23.862C46.9648 24.7093 47.2108 25.5703 47.4021 26.445C47.6208 27.3197 47.7848 28.208 47.8941 29.11C48.0308 30.34 48.1538 31.5563 48.2631 32.759C48.3724 33.9617 48.4681 35.178 48.5501 36.408C48.6321 37.1187 48.6321 37.843 48.5501 38.581C48.4954 39.401 48.1538 39.9887 47.5251 40.344C46.8964 40.672 46.2404 40.6173 45.5571 40.18C45.2838 39.9887 45.0924 39.7563 44.9831 39.483C44.8738 39.2097 44.7918 38.9227 44.7371 38.622C44.7098 38.4853 44.6961 38.3623 44.6961 38.253C44.6961 38.1163 44.6688 37.9797 44.6141 37.843ZM41.1291 36.9C41.5664 36.4353 41.9901 35.9843 42.4001 35.547C42.8101 35.0823 43.1654 34.5767 43.4661 34.03C43.5481 33.866 43.5344 33.6747 43.4251 33.456C43.3431 33.21 43.2064 33.0323 43.0151 32.923C42.8238 32.7863 42.6734 32.7727 42.5641 32.882C42.4821 32.964 42.3728 33.0323 42.2361 33.087C42.2088 33.1417 42.1678 33.1963 42.1131 33.251C42.0584 33.3057 42.0174 33.3603 41.9901 33.415C41.6348 33.9343 41.3751 34.481 41.2111 35.055C41.0471 35.6017 41.0198 36.2167 41.1291 36.9ZM55.4169 27.634C55.6083 27.4973 55.7313 27.3607 55.7859 27.224C55.8406 27.06 55.8953 26.9233 55.9499 26.814C56.1959 26.3493 56.4829 25.912 56.8109 25.502C57.1389 25.0647 57.5353 24.7093 57.9999 24.436C58.6286 24.0533 59.2436 23.8347 59.8449 23.78C60.4736 23.698 61.1023 23.8483 61.7309 24.231C62.1956 24.477 62.5373 24.846 62.7559 25.338C63.0019 25.83 63.0703 26.322 62.9609 26.814C62.8789 27.3333 62.6603 27.675 62.3049 27.839C61.9496 28.003 61.5396 27.9483 61.0749 27.675C60.8289 27.5383 60.6239 27.47 60.4599 27.47C60.2959 27.47 60.1046 27.5793 59.8859 27.798C59.7766 27.9073 59.6673 28.044 59.5579 28.208C59.4759 28.372 59.3803 28.5223 59.2709 28.659C59.0796 29.0963 58.9156 29.5337 58.7789 29.971C58.6423 30.381 58.5056 30.8047 58.3689 31.242C58.1229 32.0893 57.8906 32.9503 57.6719 33.825C57.4806 34.6723 57.3166 35.5333 57.1799 36.408C57.1253 36.9547 57.0706 37.5013 57.0159 38.048C56.9613 38.5947 56.9339 39.1413 56.9339 39.688C56.9339 39.8793 56.9203 40.0843 56.8929 40.303C56.8929 40.5217 56.8519 40.7403 56.7699 40.959C56.4966 41.779 55.9363 42.189 55.0889 42.189C54.2416 42.271 53.6266 41.9293 53.2439 41.164C53.1346 40.9453 53.0526 40.713 52.9979 40.467C52.9706 40.221 52.9296 40.0023 52.8749 39.811C52.6836 38.663 52.5196 37.5287 52.3829 36.408C52.2463 35.26 52.1096 34.112 51.9729 32.964C51.8636 31.8433 51.7953 30.709 51.7679 29.561C51.7406 28.3857 51.7406 27.2103 51.7679 26.035C51.7679 25.2697 52.0549 24.7093 52.6289 24.354C53.1209 24.0533 53.6266 24.0123 54.1459 24.231C54.6653 24.4223 55.0069 24.7913 55.1709 25.338C55.3349 25.7753 55.4169 26.2127 55.4169 26.65C55.3896 26.7867 55.3759 26.937 55.3759 27.101C55.4033 27.265 55.4169 27.4427 55.4169 27.634ZM64.8598 33.661C64.8598 32.3763 65.0374 31.1463 65.3928 29.971C65.7754 28.7683 66.2674 27.593 66.8688 26.445C67.1694 25.8983 67.5248 25.379 67.9348 24.887C68.3448 24.395 68.8094 23.9713 69.3288 23.616C70.0394 23.124 70.7774 22.837 71.5428 22.755C72.3628 22.7003 73.1008 22.878 73.7568 23.288C74.4128 23.698 74.9184 24.2583 75.2738 24.969C75.6291 25.6523 75.7384 26.4313 75.6018 27.306C75.5744 27.552 75.5198 27.8117 75.4378 28.085C75.3558 28.3583 75.2464 28.618 75.1098 28.864C74.7544 29.5473 74.3308 30.2033 73.8388 30.832C73.3741 31.4333 72.8001 31.9663 72.1168 32.431C71.6794 32.7317 71.2148 32.9913 70.7228 33.21C70.2581 33.4013 69.7524 33.4833 69.2058 33.456C69.0144 33.456 68.8914 33.4833 68.8368 33.538C68.8094 33.5927 68.7958 33.7157 68.7958 33.907C68.7684 34.3443 68.7958 34.7817 68.8778 35.219C68.9598 35.6563 69.0691 36.0937 69.2058 36.531C69.3698 36.8863 69.5201 37.0913 69.6568 37.146C69.7934 37.2007 70.0394 37.1187 70.3948 36.9C70.9141 36.6267 71.3788 36.2577 71.7888 35.793C72.0348 35.5743 72.2808 35.383 72.5268 35.219C72.7728 35.0277 73.0188 34.8363 73.2648 34.645C73.3741 34.5357 73.5381 34.4263 73.7568 34.317C74.1668 34.1803 74.5084 34.2213 74.7818 34.44C75.0824 34.6313 75.2328 34.9457 75.2328 35.383C75.2328 35.5743 75.2191 35.7657 75.1918 35.957C75.1644 36.1483 75.1234 36.3397 75.0688 36.531C74.7134 37.5697 74.2078 38.4717 73.5518 39.237C72.8958 40.0023 72.0074 40.5627 70.8868 40.918C69.3288 41.328 67.9758 40.959 66.8278 39.811C66.2264 39.2097 65.8028 38.54 65.5568 37.802C65.3108 37.064 65.1194 36.2987 64.9828 35.506C64.9554 35.2053 64.9281 34.9047 64.9008 34.604C64.9008 34.276 64.8871 33.9617 64.8598 33.661ZM72.5268 26.896C72.5268 26.7047 72.5131 26.5407 72.4858 26.404C72.4584 26.24 72.3764 26.1307 72.2398 26.076C72.0484 25.9667 71.8024 26.035 71.5018 26.281C71.3924 26.3357 71.2968 26.404 71.2148 26.486C71.1328 26.568 71.0371 26.6637 70.9278 26.773C70.5724 27.2103 70.2718 27.6887 70.0258 28.208C69.8071 28.7273 69.6021 29.2467 69.4108 29.766C69.2741 29.9573 69.2878 30.1077 69.4518 30.217C69.5064 30.2717 69.5748 30.299 69.6568 30.299C69.7661 30.2717 69.8481 30.2443 69.9028 30.217C71.1328 29.5337 71.9938 28.5223 72.4858 27.183C72.5131 27.1283 72.5268 27.0737 72.5268 27.019C72.5268 26.937 72.5268 26.896 72.5268 26.896Z" fill="white"/>
<path d="M89.018 36.746C88.2253 37.1013 87.542 36.992 86.968 36.418C86.7767 36.1993 86.6537 35.9123 86.599 35.557C86.5443 35.2017 86.5853 34.86 86.722 34.532C86.886 34.1767 87.1593 33.8897 87.542 33.671C87.9247 33.425 88.3073 33.302 88.69 33.302C89.4827 33.302 90.0157 33.671 90.289 34.409C90.4257 34.737 90.4393 35.0787 90.33 35.434C90.248 35.762 90.0567 36.049 89.756 36.295C89.6467 36.4043 89.5237 36.5 89.387 36.582C89.2777 36.6367 89.1547 36.6913 89.018 36.746ZM90.658 53.761C90.7673 54.335 90.5897 54.745 90.125 54.991C89.633 55.237 89.141 55.1823 88.649 54.827C88.4303 54.6357 88.2663 54.417 88.157 54.171C88.0477 53.925 87.9383 53.6653 87.829 53.392C87.747 53.0093 87.665 52.613 87.583 52.203C87.5283 51.793 87.4737 51.3967 87.419 51.014C87.255 49.6473 87.1183 48.2807 87.009 46.914C86.927 45.52 86.9407 44.1397 87.05 42.773C87.0773 42.4723 87.1183 42.1717 87.173 41.871C87.2277 41.543 87.3507 41.2423 87.542 40.969C87.6787 40.6957 87.8563 40.477 88.075 40.313C88.321 40.149 88.608 40.067 88.936 40.067C89.5647 40.0943 90.0157 40.4223 90.289 41.051C90.535 41.543 90.658 42.076 90.658 42.65V48.308C90.6307 48.636 90.6033 49.0323 90.576 49.497C90.5487 49.9617 90.535 50.4673 90.535 51.014C90.535 51.4513 90.535 51.9023 90.535 52.367C90.5623 52.8317 90.6033 53.2963 90.658 53.761ZM102.651 55.196C103.28 54.7313 103.772 54.2393 104.127 53.72C104.619 53.0367 105.098 52.3397 105.562 51.629C106.054 50.9183 106.478 50.1803 106.833 49.415C106.861 49.3057 106.888 49.2237 106.915 49.169C106.943 49.087 106.956 49.005 106.956 48.923C106.984 48.349 107.312 47.9937 107.94 47.857C108.569 47.8023 109.034 48.0347 109.334 48.554C109.498 48.7453 109.594 48.9503 109.621 49.169C109.676 49.3603 109.703 49.579 109.703 49.825C109.594 51.2737 109.211 52.6677 108.555 54.007C107.735 55.6197 106.642 56.959 105.275 58.025C104.975 58.271 104.66 58.476 104.332 58.64C104.032 58.8313 103.69 58.968 103.307 59.05C102.624 59.214 101.941 59.1457 101.257 58.845C100.574 58.5717 100.027 58.1343 99.6175 57.533C99.3715 57.123 99.1528 56.6993 98.9615 56.262C98.7701 55.7973 98.6061 55.3327 98.4695 54.868C98.1141 53.8567 97.8545 52.818 97.6905 51.752C97.5265 50.686 97.3761 49.62 97.2395 48.554C97.0208 47.0233 96.8568 45.4653 96.7475 43.88C96.6108 42.2947 96.5425 40.7093 96.5425 39.124C96.5425 38.8233 96.5151 38.6457 96.4605 38.591C96.4058 38.5363 96.2145 38.5363 95.8865 38.591C95.5311 38.673 95.1758 38.7687 94.8205 38.878C94.4378 38.96 94.0551 39.0283 93.6725 39.083C93.2078 39.1923 92.7158 39.124 92.1965 38.878C91.7045 38.5773 91.4311 38.1673 91.3765 37.648C91.3218 37.1013 91.4858 36.6367 91.8685 36.254C92.2511 35.926 92.6611 35.6937 93.0985 35.557C93.5905 35.4203 94.0825 35.2837 94.5745 35.147C95.0391 35.0103 95.5175 34.8873 96.0095 34.778C96.3375 34.7233 96.5425 34.6687 96.6245 34.614C96.6791 34.532 96.7201 34.3133 96.7475 33.958C96.7748 33.0287 96.8568 32.113 96.9935 31.211C97.1028 30.2817 97.2805 29.3523 97.5265 28.423C97.6358 28.095 97.7315 27.767 97.8135 27.439C97.9228 27.0837 98.0731 26.7557 98.2645 26.455C98.4285 26.2363 98.5925 26.045 98.7565 25.881C98.9205 25.6897 99.1118 25.5393 99.3305 25.43C99.8498 25.0747 100.424 25.0473 101.052 25.348C101.326 25.5393 101.49 25.7717 101.544 26.045C101.626 26.3183 101.64 26.6053 101.585 26.906C101.531 27.5073 101.421 28.1087 101.257 28.71C101.093 29.284 100.984 29.8853 100.929 30.514C100.875 31.0333 100.806 31.5527 100.724 32.072C100.67 32.5913 100.615 33.1243 100.56 33.671C100.56 33.917 100.574 34.0673 100.601 34.122C100.656 34.1493 100.82 34.163 101.093 34.163C101.64 34.163 102.159 34.1493 102.651 34.122C103.143 34.0947 103.649 34.081 104.168 34.081C105.098 34.081 105.877 34.4363 106.505 35.147C106.669 35.2837 106.792 35.4477 106.874 35.639C106.984 35.803 107.052 35.9807 107.079 36.172C107.134 36.6367 106.984 37.0467 106.628 37.402C106.273 37.73 105.904 37.812 105.521 37.648C105.467 37.648 105.398 37.648 105.316 37.648C105.262 37.6207 105.193 37.6207 105.111 37.648C104.51 37.8667 103.895 37.9623 103.266 37.935C102.665 37.9077 102.05 37.935 101.421 38.017H100.847C100.519 38.017 100.355 38.181 100.355 38.509C100.41 39.0283 100.437 39.5477 100.437 40.067C100.437 40.559 100.451 41.0647 100.478 41.584C100.533 42.9233 100.629 44.2627 100.765 45.602C100.902 46.9413 101.08 48.267 101.298 49.579C101.38 50.2623 101.476 50.9457 101.585 51.629C101.722 52.285 101.886 52.9547 102.077 53.638C102.132 53.884 102.214 54.13 102.323 54.376C102.433 54.622 102.542 54.8953 102.651 55.196Z" fill="white"/>
<path d="M42.556 75.508C42.556 75.004 42.58 74.488 42.628 73.96C42.676 73.432 42.724 72.904 42.772 72.376C42.772 72.208 42.736 72.064 42.664 71.944C42.616 71.824 42.484 71.74 42.268 71.692C41.98 71.62 41.74 71.44 41.548 71.152C41.38 70.84 41.308 70.504 41.332 70.144C41.38 69.784 41.548 69.472 41.836 69.208C42.1 68.944 42.388 68.764 42.7 68.668C42.916 68.62 43.06 68.524 43.132 68.38C43.228 68.236 43.288 68.08 43.312 67.912C43.36 67.384 43.408 66.856 43.456 66.328C43.528 65.8 43.6 65.284 43.672 64.78C43.864 63.484 44.08 62.188 44.32 60.892C44.56 59.596 44.8 58.3 45.04 57.004C45.208 56.308 45.352 55.612 45.472 54.916C45.616 54.196 45.808 53.488 46.048 52.792C46.144 52.576 46.228 52.36 46.3 52.144C46.396 51.928 46.516 51.724 46.66 51.532C47.092 50.812 47.668 50.452 48.388 50.452C49.132 50.452 49.72 50.812 50.152 51.532C50.416 51.892 50.608 52.276 50.728 52.684C50.848 53.068 50.944 53.464 51.016 53.872C51.232 54.904 51.412 55.948 51.556 57.004C51.724 58.036 51.892 59.08 52.06 60.136C52.18 61.24 52.288 62.356 52.384 63.484C52.504 64.588 52.612 65.704 52.708 66.832C52.732 66.952 52.768 67.084 52.816 67.228C52.888 67.348 52.996 67.444 53.14 67.516C53.764 68.068 53.812 68.608 53.284 69.136C53.044 69.424 52.96 69.736 53.032 70.072C53.08 70.72 53.128 71.368 53.176 72.016C53.248 72.664 53.308 73.312 53.356 73.96C53.404 74.56 53.464 75.172 53.536 75.796C53.608 76.42 53.704 77.044 53.824 77.668C53.944 78.22 53.752 78.604 53.248 78.82C52.84 79.06 52.42 78.964 51.988 78.532C51.82 78.364 51.676 78.172 51.556 77.956C51.436 77.716 51.328 77.476 51.232 77.236C51.016 76.612 50.848 75.988 50.728 75.364C50.608 74.716 50.488 74.068 50.368 73.42C50.296 72.94 50.212 72.46 50.116 71.98C50.044 71.476 49.972 70.984 49.9 70.504C49.876 70.36 49.84 70.252 49.792 70.18C49.744 70.108 49.636 70.084 49.468 70.108C49.012 70.204 48.544 70.312 48.064 70.432C47.584 70.528 47.116 70.636 46.66 70.756C46.396 70.828 46.264 70.996 46.264 71.26C46.192 72.148 46.108 73.024 46.012 73.888C45.916 74.752 45.82 75.64 45.724 76.552C45.7 76.768 45.688 76.984 45.688 77.2C45.688 77.416 45.688 77.632 45.688 77.848C45.568 78.592 45.208 79.06 44.608 79.252C44.296 79.348 43.996 79.336 43.708 79.216C43.444 79.12 43.204 78.964 42.988 78.748C42.82 78.58 42.712 78.412 42.664 78.244C42.616 78.052 42.592 77.848 42.592 77.632C42.568 77.296 42.556 76.96 42.556 76.624C42.556 76.264 42.556 75.892 42.556 75.508ZM48.208 57.436C48.064 57.652 47.992 57.808 47.992 57.904C47.56 59.536 47.236 61.18 47.02 62.836C46.948 63.556 46.864 64.288 46.768 65.032C46.696 65.752 46.624 66.472 46.552 67.192C46.528 67.408 46.528 67.54 46.552 67.588C46.6 67.636 46.744 67.648 46.984 67.624C47.32 67.6 47.656 67.564 47.992 67.516C48.328 67.468 48.652 67.432 48.964 67.408C49.324 67.408 49.468 67.252 49.396 66.94C49.324 66.46 49.264 65.992 49.216 65.536C49.168 65.056 49.108 64.588 49.036 64.132C48.988 63.604 48.928 63.088 48.856 62.584C48.784 62.08 48.736 61.564 48.712 61.036C48.664 60.436 48.592 59.836 48.496 59.236C48.424 58.636 48.328 58.036 48.208 57.436ZM56.6635 70.324C56.6395 69.292 56.6155 68.2 56.5915 67.048C56.5675 65.896 56.5555 64.744 56.5555 63.592C56.5555 62.416 56.5435 61.264 56.5195 60.136C56.5195 58.984 56.5315 57.832 56.5555 56.68C56.5555 56.08 56.5555 55.492 56.5555 54.916C56.5795 54.34 56.6155 53.752 56.6635 53.152C56.7115 52.744 56.7835 52.384 56.8795 52.072C56.9275 51.904 56.9875 51.76 57.0595 51.64C57.1315 51.496 57.2275 51.352 57.3475 51.208C57.6835 50.872 58.0675 50.74 58.4995 50.812C58.9315 50.884 59.2675 51.124 59.5075 51.532C59.6515 51.724 59.7475 51.94 59.7955 52.18C59.8435 52.396 59.8795 52.636 59.9035 52.9C59.9515 54.244 59.9635 55.588 59.9395 56.932C59.9155 58.252 59.8675 59.584 59.7955 60.928C59.7955 61.072 59.7835 61.216 59.7595 61.36C59.7355 61.48 59.7235 61.612 59.7235 61.756C59.6755 64.156 59.6035 66.544 59.5075 68.92C59.4835 70.696 59.4835 72.496 59.5075 74.32C59.5075 74.776 59.5555 75.04 59.6515 75.112C59.7475 75.184 60.0115 75.172 60.4435 75.076C61.1635 74.908 61.8715 74.74 62.5675 74.572C63.2875 74.404 64.0195 74.272 64.7635 74.176C65.4835 74.056 66.2035 73.96 66.9235 73.888C67.6675 73.816 68.3875 73.804 69.0835 73.852H71.4955C71.7115 73.852 71.9155 73.864 72.1075 73.888C72.3235 73.912 72.5155 73.984 72.6835 74.104C72.9475 74.2 73.1275 74.368 73.2235 74.608C73.3195 74.848 73.3435 75.076 73.2955 75.292C73.2715 75.484 73.1755 75.652 73.0075 75.796C72.8635 75.916 72.7195 75.928 72.5755 75.832C72.1915 75.64 71.8315 75.592 71.4955 75.688C71.1595 75.784 70.8235 75.856 70.4875 75.904C70.1275 75.952 69.7675 76.036 69.4075 76.156C69.0715 76.276 68.7235 76.408 68.3635 76.552C67.2835 76.936 66.1795 77.26 65.0515 77.524C63.9235 77.764 62.7955 78.016 61.6675 78.28C61.2355 78.352 60.8155 78.436 60.4075 78.532C59.9995 78.628 59.5795 78.736 59.1475 78.856C58.8115 78.928 58.5235 78.952 58.2835 78.928C57.7075 78.88 57.2635 78.676 56.9515 78.316C56.6635 77.956 56.5315 77.512 56.5555 76.984C56.5795 76.36 56.6035 75.748 56.6275 75.148C56.6755 74.524 56.6875 73.912 56.6635 73.312V70.324ZM75.0854 70.324C75.0614 69.292 75.0374 68.2 75.0134 67.048C74.9894 65.896 74.9774 64.744 74.9774 63.592C74.9774 62.416 74.9654 61.264 74.9414 60.136C74.9414 58.984 74.9534 57.832 74.9774 56.68C74.9774 56.08 74.9774 55.492 74.9774 54.916C75.0014 54.34 75.0374 53.752 75.0854 53.152C75.1334 52.744 75.2054 52.384 75.3014 52.072C75.3494 51.904 75.4094 51.76 75.4814 51.64C75.5534 51.496 75.6494 51.352 75.7694 51.208C76.1054 50.872 76.4894 50.74 76.9214 50.812C77.3534 50.884 77.6894 51.124 77.9294 51.532C78.0734 51.724 78.1694 51.94 78.2174 52.18C78.2654 52.396 78.3014 52.636 78.3254 52.9C78.3734 54.244 78.3854 55.588 78.3614 56.932C78.3374 58.252 78.2894 59.584 78.2174 60.928C78.2174 61.072 78.2054 61.216 78.1814 61.36C78.1574 61.48 78.1454 61.612 78.1454 61.756C78.0974 64.156 78.0254 66.544 77.9294 68.92C77.9054 70.696 77.9054 72.496 77.9294 74.32C77.9294 74.776 77.9774 75.04 78.0734 75.112C78.1694 75.184 78.4334 75.172 78.8654 75.076C79.5854 74.908 80.2934 74.74 80.9894 74.572C81.7094 74.404 82.4414 74.272 83.1854 74.176C83.9054 74.056 84.6254 73.96 85.3454 73.888C86.0894 73.816 86.8094 73.804 87.5054 73.852H89.9174C90.1334 73.852 90.3374 73.864 90.5294 73.888C90.7454 73.912 90.9374 73.984 91.1054 74.104C91.3694 74.2 91.5494 74.368 91.6454 74.608C91.7414 74.848 91.7654 75.076 91.7174 75.292C91.6934 75.484 91.5974 75.652 91.4294 75.796C91.2854 75.916 91.1414 75.928 90.9974 75.832C90.6134 75.64 90.2534 75.592 89.9174 75.688C89.5814 75.784 89.2454 75.856 88.9094 75.904C88.5494 75.952 88.1894 76.036 87.8294 76.156C87.4934 76.276 87.1454 76.408 86.7854 76.552C85.7054 76.936 84.6014 77.26 83.4734 77.524C82.3454 77.764 81.2174 78.016 80.0894 78.28C79.6574 78.352 79.2374 78.436 78.8294 78.532C78.4214 78.628 78.0014 78.736 77.5694 78.856C77.2334 78.928 76.9454 78.952 76.7054 78.928C76.1294 78.88 75.6854 78.676 75.3734 78.316C75.0854 77.956 74.9534 77.512 74.9774 76.984C75.0014 76.36 75.0254 75.748 75.0494 75.148C75.0974 74.524 75.1094 73.912 75.0854 73.312V70.324Z" fill="white"/>
<path d="M105.519 84.859C105.82 84.5583 106.066 84.244 106.257 83.916C106.448 83.5607 106.64 83.219 106.831 82.891C107.104 82.2897 107.323 81.702 107.487 81.128C107.678 80.5267 107.87 79.9253 108.061 79.324C108.307 78.6407 108.498 77.9437 108.635 77.233C108.772 76.5223 108.826 75.798 108.799 75.06C108.799 74.5953 108.936 74.199 109.209 73.871C109.482 73.543 109.81 73.3243 110.193 73.215C111.095 73.0237 111.819 73.338 112.366 74.158C112.557 74.5133 112.721 74.8823 112.858 75.265C112.94 75.6477 113.036 76.0577 113.145 76.495C113.254 76.905 113.364 77.315 113.473 77.725C113.746 78.5997 114.033 79.488 114.334 80.39C114.662 81.2647 115.045 82.0983 115.482 82.891C115.591 83.0277 115.687 83.178 115.769 83.342C115.851 83.4787 115.988 83.588 116.179 83.67C116.316 83.5333 116.411 83.3147 116.466 83.014C116.685 82.2213 116.835 81.4423 116.917 80.677C116.999 79.9117 117.054 79.1327 117.081 78.34C117.081 77.7387 117.081 77.151 117.081 76.577C117.081 76.003 117.067 75.4427 117.04 74.896C117.04 74.5953 117.026 74.322 116.999 74.076C116.972 73.83 116.944 73.5703 116.917 73.297C116.808 72.9417 116.808 72.6 116.917 72.272C117.054 71.944 117.341 71.6843 117.778 71.493C118.434 71.1923 119.008 71.3427 119.5 71.944C119.801 72.2173 120.047 72.5863 120.238 73.051C120.621 73.9803 120.853 74.937 120.935 75.921C121.017 76.905 121.031 77.889 120.976 78.873C120.921 79.5563 120.853 80.226 120.771 80.882C120.716 81.538 120.621 82.1803 120.484 82.809C120.375 83.3557 120.224 83.9023 120.033 84.449C119.869 84.9683 119.664 85.4877 119.418 86.007C119.309 86.1983 119.199 86.4033 119.09 86.622C118.981 86.8133 118.844 86.9773 118.68 87.114C117.614 88.262 116.343 88.467 114.867 87.729C114.566 87.5923 114.279 87.401 114.006 87.155C113.76 86.8817 113.514 86.622 113.268 86.376C112.393 85.31 111.683 84.08 111.136 82.686C111.081 82.604 111.027 82.4947 110.972 82.358C110.917 82.194 110.822 82.0573 110.685 81.948C110.439 82.686 110.193 83.383 109.947 84.039C109.756 84.4763 109.564 84.9 109.373 85.31C109.209 85.6927 109.018 86.0753 108.799 86.458C108.58 86.7587 108.348 87.0457 108.102 87.319C107.883 87.5923 107.624 87.852 107.323 88.098C106.612 88.6993 105.833 88.9453 104.986 88.836C104.166 88.6993 103.51 88.3713 103.018 87.852C102.307 87.114 101.815 86.3213 101.542 85.474C101.105 84.244 100.804 82.9867 100.64 81.702C100.503 80.4173 100.517 79.1327 100.681 77.848C100.736 77.356 100.818 76.8503 100.927 76.331C101.064 75.8117 101.228 75.3333 101.419 74.896C101.501 74.65 101.61 74.4177 101.747 74.199C101.884 73.953 102.061 73.748 102.28 73.584C102.717 73.1467 103.209 73.051 103.756 73.297C104.303 73.543 104.549 73.9667 104.494 74.568C104.494 75.0873 104.48 75.6067 104.453 76.126C104.426 76.6453 104.412 77.1783 104.412 77.725C104.385 78.4903 104.385 79.2557 104.412 80.021C104.467 80.7863 104.549 81.5517 104.658 82.317C104.713 82.7543 104.808 83.178 104.945 83.588C105.082 83.998 105.273 84.4217 105.519 84.859ZM126.601 68.746C125.808 69.1013 125.125 68.992 124.551 68.418C124.36 68.1993 124.237 67.9123 124.182 67.557C124.127 67.2017 124.168 66.86 124.305 66.532C124.469 66.1767 124.742 65.8897 125.125 65.671C125.508 65.425 125.89 65.302 126.273 65.302C127.066 65.302 127.599 65.671 127.872 66.409C128.009 66.737 128.022 67.0787 127.913 67.434C127.831 67.762 127.64 68.049 127.339 68.295C127.23 68.4043 127.107 68.5 126.97 68.582C126.861 68.6367 126.738 68.6913 126.601 68.746ZM128.241 85.761C128.35 86.335 128.173 86.745 127.708 86.991C127.216 87.237 126.724 87.1823 126.232 86.827C126.013 86.6357 125.849 86.417 125.74 86.171C125.631 85.925 125.521 85.6653 125.412 85.392C125.33 85.0093 125.248 84.613 125.166 84.203C125.111 83.793 125.057 83.3967 125.002 83.014C124.838 81.6473 124.701 80.2807 124.592 78.914C124.51 77.52 124.524 76.1397 124.633 74.773C124.66 74.4723 124.701 74.1717 124.756 73.871C124.811 73.543 124.934 73.2423 125.125 72.969C125.262 72.6957 125.439 72.477 125.658 72.313C125.904 72.149 126.191 72.067 126.519 72.067C127.148 72.0943 127.599 72.4223 127.872 73.051C128.118 73.543 128.241 74.076 128.241 74.65V80.308C128.214 80.636 128.186 81.0323 128.159 81.497C128.132 81.9617 128.118 82.4673 128.118 83.014C128.118 83.4513 128.118 83.9023 128.118 84.367C128.145 84.8317 128.186 85.2963 128.241 85.761ZM140.234 87.196C140.863 86.7313 141.355 86.2393 141.71 85.72C142.202 85.0367 142.681 84.3397 143.145 83.629C143.637 82.9183 144.061 82.1803 144.416 81.415C144.444 81.3057 144.471 81.2237 144.498 81.169C144.526 81.087 144.539 81.005 144.539 80.923C144.567 80.349 144.895 79.9937 145.523 79.857C146.152 79.8023 146.617 80.0347 146.917 80.554C147.081 80.7453 147.177 80.9503 147.204 81.169C147.259 81.3603 147.286 81.579 147.286 81.825C147.177 83.2737 146.794 84.6677 146.138 86.007C145.318 87.6197 144.225 88.959 142.858 90.025C142.558 90.271 142.243 90.476 141.915 90.64C141.615 90.8313 141.273 90.968 140.89 91.05C140.207 91.214 139.524 91.1457 138.84 90.845C138.157 90.5717 137.61 90.1343 137.2 89.533C136.954 89.123 136.736 88.6993 136.544 88.262C136.353 87.7973 136.189 87.3327 136.052 86.868C135.697 85.8567 135.437 84.818 135.273 83.752C135.109 82.686 134.959 81.62 134.822 80.554C134.604 79.0233 134.44 77.4653 134.33 75.88C134.194 74.2947 134.125 72.7093 134.125 71.124C134.125 70.8233 134.098 70.6457 134.043 70.591C133.989 70.5363 133.797 70.5363 133.469 70.591C133.114 70.673 132.759 70.7687 132.403 70.878C132.021 70.96 131.638 71.0283 131.255 71.083C130.791 71.1923 130.299 71.124 129.779 70.878C129.287 70.5773 129.014 70.1673 128.959 69.648C128.905 69.1013 129.069 68.6367 129.451 68.254C129.834 67.926 130.244 67.6937 130.681 67.557C131.173 67.4203 131.665 67.2837 132.157 67.147C132.622 67.0103 133.1 66.8873 133.592 66.778C133.92 66.7233 134.125 66.6687 134.207 66.614C134.262 66.532 134.303 66.3133 134.33 65.958C134.358 65.0287 134.44 64.113 134.576 63.211C134.686 62.2817 134.863 61.3523 135.109 60.423C135.219 60.095 135.314 59.767 135.396 59.439C135.506 59.0837 135.656 58.7557 135.847 58.455C136.011 58.2363 136.175 58.045 136.339 57.881C136.503 57.6897 136.695 57.5393 136.913 57.43C137.433 57.0747 138.007 57.0473 138.635 57.348C138.909 57.5393 139.073 57.7717 139.127 58.045C139.209 58.3183 139.223 58.6053 139.168 58.906C139.114 59.5073 139.004 60.1087 138.84 60.71C138.676 61.284 138.567 61.8853 138.512 62.514C138.458 63.0333 138.389 63.5527 138.307 64.072C138.253 64.5913 138.198 65.1243 138.143 65.671C138.143 65.917 138.157 66.0673 138.184 66.122C138.239 66.1493 138.403 66.163 138.676 66.163C139.223 66.163 139.742 66.1493 140.234 66.122C140.726 66.0947 141.232 66.081 141.751 66.081C142.681 66.081 143.46 66.4363 144.088 67.147C144.252 67.2837 144.375 67.4477 144.457 67.639C144.567 67.803 144.635 67.9807 144.662 68.172C144.717 68.6367 144.567 69.0467 144.211 69.402C143.856 69.73 143.487 69.812 143.104 69.648C143.05 69.648 142.981 69.648 142.899 69.648C142.845 69.6207 142.776 69.6207 142.694 69.648C142.093 69.8667 141.478 69.9623 140.849 69.935C140.248 69.9077 139.633 69.935 139.004 70.017H138.43C138.102 70.017 137.938 70.181 137.938 70.509C137.993 71.0283 138.02 71.5477 138.02 72.067C138.02 72.559 138.034 73.0647 138.061 73.584C138.116 74.9233 138.212 76.2627 138.348 77.602C138.485 78.9413 138.663 80.267 138.881 81.579C138.963 82.2623 139.059 82.9457 139.168 83.629C139.305 84.285 139.469 84.9547 139.66 85.638C139.715 85.884 139.797 86.13 139.906 86.376C140.016 86.622 140.125 86.8953 140.234 87.196ZM154.384 75.798C154.493 75.4973 154.575 75.1967 154.63 74.896C154.712 74.568 154.794 74.24 154.876 73.912C154.985 73.5293 155.122 73.174 155.286 72.846C155.45 72.518 155.668 72.2173 155.942 71.944C156.406 71.4793 156.939 71.1923 157.541 71.083C158.142 70.9737 158.73 71.0967 159.304 71.452C160.014 71.9167 160.534 72.5727 160.862 73.42C161.19 74.1853 161.422 74.978 161.559 75.798C161.723 76.618 161.859 77.438 161.969 78.258C162.051 79.488 162.051 80.7043 161.969 81.907C161.887 83.1097 161.777 84.3123 161.641 85.515C161.613 85.7337 161.559 85.9523 161.477 86.171C161.422 86.3623 161.313 86.5537 161.149 86.745C161.012 86.9637 160.807 87.1277 160.534 87.237C160.288 87.3463 160.042 87.3463 159.796 87.237C159.331 87.1277 159.071 86.7587 159.017 86.13C158.907 85.1187 158.784 84.1073 158.648 83.096C158.538 82.0847 158.415 81.0733 158.279 80.062C158.169 79.4607 158.101 78.873 158.074 78.299C158.046 77.725 157.964 77.1647 157.828 76.618C157.718 76.618 157.65 76.659 157.623 76.741C157.595 76.7957 157.568 76.8503 157.541 76.905C156.939 78.299 156.447 79.7203 156.065 81.169C155.709 82.5903 155.463 84.0663 155.327 85.597C155.299 86.0343 155.245 86.4717 155.163 86.909C155.108 87.3463 155.053 87.7837 154.999 88.221C154.862 89.0957 154.37 89.574 153.523 89.656C153.195 89.656 152.88 89.5193 152.58 89.246C152.279 89 152.101 88.6857 152.047 88.303C151.965 87.8657 151.896 87.442 151.842 87.032C151.814 86.622 151.787 86.1983 151.76 85.761C151.65 84.8043 151.541 83.8477 151.432 82.891C151.322 81.907 151.227 80.9367 151.145 79.98C151.035 78.8593 150.926 77.7523 150.817 76.659C150.707 75.5383 150.625 74.4313 150.571 73.338C150.516 72.354 150.475 71.3837 150.448 70.427C150.42 69.4703 150.407 68.5 150.407 67.516C150.407 66.4773 150.407 65.425 150.407 64.359C150.434 63.2657 150.557 62.1997 150.776 61.161C150.83 60.833 150.899 60.5187 150.981 60.218C151.09 59.89 151.24 59.5893 151.432 59.316C151.65 58.988 151.924 58.742 152.252 58.578C152.607 58.414 152.949 58.4003 153.277 58.537C154.015 58.701 154.384 59.234 154.384 60.136C154.438 61.7487 154.411 63.375 154.302 65.015C154.22 66.655 154.192 68.2813 154.22 69.894C154.247 70.878 154.247 71.862 154.22 72.846C154.22 73.83 154.22 74.814 154.22 75.798H154.384Z" fill="white"/>
<path d="M5.371 94.345C5.58967 94.2903 5.75367 94.2083 5.863 94.099C5.97233 93.9623 6.068 93.8393 6.15 93.73C7.02467 92.8007 7.89933 91.8713 8.774 90.942C9.64867 90.0127 10.496 89.056 11.316 88.072C12.3 86.9513 13.243 85.8443 14.145 84.751C14.2817 84.587 14.4047 84.423 14.514 84.259C14.6507 84.095 14.8147 83.972 15.006 83.89C15.416 83.5893 15.8533 83.562 16.318 83.808C16.7007 84.054 16.8373 84.423 16.728 84.915C16.7007 85.079 16.6597 85.2293 16.605 85.366C16.5503 85.5027 16.4957 85.6393 16.441 85.776C15.9763 86.7327 15.457 87.6347 14.883 88.482C14.309 89.3293 13.6803 90.1493 12.997 90.942C12.259 91.7893 11.5073 92.623 10.742 93.443C9.97667 94.2357 9.21133 95.0283 8.446 95.821C8.22733 96.0123 8.02233 96.2037 7.831 96.395C7.63967 96.5863 7.44833 96.7777 7.257 96.969C7.06567 97.1877 6.97 97.338 6.97 97.42C6.97 97.4747 7.06567 97.5977 7.257 97.789C7.44833 97.9803 7.65333 98.1717 7.872 98.363C8.09067 98.5543 8.323 98.7457 8.569 98.937C9.27967 99.5383 9.99033 100.126 10.701 100.7C11.439 101.247 12.2043 101.793 12.997 102.34C13.489 102.668 13.9673 103.037 14.432 103.447C14.8967 103.83 15.375 104.199 15.867 104.554C16.1677 104.745 16.3453 104.964 16.4 105.21C16.482 105.456 16.4957 105.702 16.441 105.948C16.3317 106.221 16.154 106.413 15.908 106.522C15.6893 106.631 15.4297 106.713 15.129 106.768C15.0197 106.768 14.8967 106.768 14.76 106.768C14.6507 106.741 14.5277 106.713 14.391 106.686C13.3797 106.44 12.3957 106.126 11.439 105.743C10.5097 105.333 9.635 104.786 8.815 104.103C8.29567 103.666 7.76267 103.242 7.216 102.832C6.69667 102.395 6.16367 101.985 5.617 101.602C5.50767 101.657 5.453 101.725 5.453 101.807C5.48033 101.889 5.494 101.985 5.494 102.094C5.494 103.269 5.494 104.445 5.494 105.62C5.494 106.768 5.50767 107.93 5.535 109.105C5.535 109.406 5.535 109.706 5.535 110.007C5.56233 110.28 5.60333 110.567 5.658 110.868C5.84933 111.579 5.67167 112.071 5.125 112.344C4.879 112.508 4.592 112.576 4.264 112.549C3.96333 112.494 3.69 112.371 3.444 112.18C3.25267 111.989 3.08867 111.784 2.952 111.565C2.84267 111.319 2.747 111.073 2.665 110.827C2.501 110.335 2.378 109.829 2.296 109.31C2.214 108.791 2.14567 108.271 2.091 107.752C1.89967 106.276 1.763 104.8 1.681 103.324C1.62633 101.848 1.599 100.372 1.599 98.896C1.57167 96.436 1.54433 93.976 1.517 91.516C1.517 89.056 1.54433 86.596 1.599 84.136C1.599 83.9173 1.61267 83.685 1.64 83.439C1.66733 83.193 1.69467 82.9743 1.722 82.783C1.85867 82.3183 2.10467 81.9493 2.46 81.676C2.84267 81.3753 3.25267 81.2523 3.69 81.307C4.15467 81.3617 4.551 81.5667 4.879 81.922C5.207 82.25 5.34367 82.66 5.289 83.152C5.26167 84.136 5.27533 85.12 5.33 86.104C5.38467 87.088 5.412 88.072 5.412 89.056C5.38467 89.9033 5.371 90.7643 5.371 91.639C5.371 92.5137 5.371 93.4157 5.371 94.345ZM22.3046 99.634C22.496 99.4973 22.619 99.3607 22.6736 99.224C22.7283 99.06 22.783 98.9233 22.8376 98.814C23.0836 98.3493 23.3706 97.912 23.6986 97.502C24.0266 97.0647 24.423 96.7093 24.8876 96.436C25.5163 96.0533 26.1313 95.8347 26.7326 95.78C27.3613 95.698 27.99 95.8483 28.6186 96.231C29.0833 96.477 29.425 96.846 29.6436 97.338C29.8896 97.83 29.958 98.322 29.8486 98.814C29.7666 99.3333 29.548 99.675 29.1926 99.839C28.8373 100.003 28.4273 99.9483 27.9626 99.675C27.7166 99.5383 27.5116 99.47 27.3476 99.47C27.1836 99.47 26.9923 99.5793 26.7736 99.798C26.6643 99.9073 26.555 100.044 26.4456 100.208C26.3636 100.372 26.268 100.522 26.1586 100.659C25.9673 101.096 25.8033 101.534 25.6666 101.971C25.53 102.381 25.3933 102.805 25.2566 103.242C25.0106 104.089 24.7783 104.95 24.5596 105.825C24.3683 106.672 24.2043 107.533 24.0676 108.408C24.013 108.955 23.9583 109.501 23.9036 110.048C23.849 110.595 23.8216 111.141 23.8216 111.688C23.8216 111.879 23.808 112.084 23.7806 112.303C23.7806 112.522 23.7396 112.74 23.6576 112.959C23.3843 113.779 22.824 114.189 21.9766 114.189C21.1293 114.271 20.5143 113.929 20.1316 113.164C20.0223 112.945 19.9403 112.713 19.8856 112.467C19.8583 112.221 19.8173 112.002 19.7626 111.811C19.5713 110.663 19.4073 109.529 19.2706 108.408C19.134 107.26 18.9973 106.112 18.8606 104.964C18.7513 103.843 18.683 102.709 18.6556 101.561C18.6283 100.386 18.6283 99.2103 18.6556 98.035C18.6556 97.2697 18.9426 96.7093 19.5166 96.354C20.0086 96.0533 20.5143 96.0123 21.0336 96.231C21.553 96.4223 21.8946 96.7913 22.0586 97.338C22.2226 97.7753 22.3046 98.2127 22.3046 98.65C22.2773 98.7867 22.2636 98.937 22.2636 99.101C22.291 99.265 22.3046 99.4427 22.3046 99.634ZM35.4487 92.746C34.656 93.1013 33.9727 92.992 33.3987 92.418C33.2073 92.1993 33.0843 91.9123 33.0297 91.557C32.975 91.2017 33.016 90.86 33.1527 90.532C33.3167 90.1767 33.59 89.8897 33.9727 89.671C34.3553 89.425 34.738 89.302 35.1207 89.302C35.9133 89.302 36.4463 89.671 36.7197 90.409C36.8563 90.737 36.87 91.0787 36.7607 91.434C36.6787 91.762 36.4873 92.049 36.1867 92.295C36.0773 92.4043 35.9543 92.5 35.8177 92.582C35.7083 92.6367 35.5853 92.6913 35.4487 92.746ZM37.0887 109.761C37.198 110.335 37.0203 110.745 36.5557 110.991C36.0637 111.237 35.5717 111.182 35.0797 110.827C34.861 110.636 34.697 110.417 34.5877 110.171C34.4783 109.925 34.369 109.665 34.2597 109.392C34.1777 109.009 34.0957 108.613 34.0137 108.203C33.959 107.793 33.9043 107.397 33.8497 107.014C33.6857 105.647 33.549 104.281 33.4397 102.914C33.3577 101.52 33.3713 100.14 33.4807 98.773C33.508 98.4723 33.549 98.1717 33.6037 97.871C33.6583 97.543 33.7813 97.2423 33.9727 96.969C34.1093 96.6957 34.287 96.477 34.5057 96.313C34.7517 96.149 35.0387 96.067 35.3667 96.067C35.9953 96.0943 36.4463 96.4223 36.7197 97.051C36.9657 97.543 37.0887 98.076 37.0887 98.65V104.308C37.0613 104.636 37.034 105.032 37.0067 105.497C36.9793 105.962 36.9657 106.467 36.9657 107.014C36.9657 107.451 36.9657 107.902 36.9657 108.367C36.993 108.832 37.034 109.296 37.0887 109.761ZM47.3697 109.884C47.1784 109.829 46.9871 109.775 46.7957 109.72C46.6317 109.638 46.4541 109.57 46.2627 109.515C42.5454 108.094 40.5364 105.429 40.2357 101.52C40.1264 100.263 40.3177 99.101 40.8097 98.035C41.3017 96.969 42.0671 96.067 43.1057 95.329C43.7617 94.8643 44.4451 94.5637 45.1557 94.427C45.8664 94.2903 46.6044 94.427 47.3697 94.837C47.6157 94.9463 47.8481 95.0967 48.0667 95.288C48.3127 95.4793 48.5041 95.698 48.6407 95.944C50.0894 98.1307 50.3354 100.44 49.3787 102.873C49.2967 103.174 49.1054 103.406 48.8047 103.57C48.5314 103.734 48.2581 103.789 47.9847 103.734C47.3561 103.679 47.0007 103.256 46.9187 102.463C46.9187 102.08 46.9187 101.711 46.9187 101.356C46.9461 100.973 46.9324 100.604 46.8777 100.249C46.8504 99.9483 46.7821 99.6613 46.6727 99.388C46.5907 99.0873 46.4541 98.814 46.2627 98.568C45.9621 98.24 45.6477 98.199 45.3197 98.445C44.9917 98.7183 44.7321 99.0463 44.5407 99.429C44.3494 99.7843 44.1991 100.181 44.0897 100.618C43.9531 101.547 44.1444 102.477 44.6637 103.406C45.2104 104.335 45.8664 105.005 46.6317 105.415C47.0964 105.661 47.5611 105.866 48.0257 106.03C48.4904 106.167 48.9824 106.29 49.5017 106.399C49.7477 106.454 49.9801 106.522 50.1987 106.604C50.4447 106.686 50.6907 106.754 50.9367 106.809C51.5654 107.055 52.0164 107.465 52.2897 108.039C52.5631 108.586 52.6177 109.187 52.4537 109.843C52.3444 110.444 52.0437 110.991 51.5517 111.483C50.9504 112.166 50.2671 112.74 49.5017 113.205C48.7364 113.67 47.9574 114.121 47.1647 114.558C46.6727 114.804 46.1807 115.023 45.6887 115.214C45.2241 115.433 44.7184 115.583 44.1717 115.665C43.9257 115.692 43.6797 115.692 43.4337 115.665C43.2151 115.638 42.9827 115.597 42.7367 115.542C42.0534 115.323 41.6434 114.927 41.5067 114.353C41.3701 113.806 41.3974 113.301 41.5887 112.836C41.7254 112.453 41.9304 112.125 42.2037 111.852C42.4224 111.661 42.6411 111.538 42.8597 111.483C43.1057 111.428 43.3381 111.469 43.5567 111.606C43.7481 111.715 43.9121 111.756 44.0487 111.729C44.1854 111.702 44.3221 111.661 44.4587 111.606C44.8414 111.387 45.2241 111.182 45.6067 110.991C46.0167 110.8 46.4131 110.595 46.7957 110.376C46.9051 110.321 47.0144 110.253 47.1237 110.171C47.2331 110.089 47.3151 109.993 47.3697 109.884ZM59.5877 99.798C59.6971 99.4973 59.7791 99.1967 59.8337 98.896C59.9157 98.568 59.9977 98.24 60.0797 97.912C60.1891 97.5293 60.3257 97.174 60.4897 96.846C60.6537 96.518 60.8724 96.2173 61.1457 95.944C61.6104 95.4793 62.1434 95.1923 62.7447 95.083C63.3461 94.9737 63.9337 95.0967 64.5077 95.452C65.2184 95.9167 65.7377 96.5727 66.0657 97.42C66.3937 98.1853 66.6261 98.978 66.7627 99.798C66.9267 100.618 67.0634 101.438 67.1727 102.258C67.2547 103.488 67.2547 104.704 67.1727 105.907C67.0907 107.11 66.9814 108.312 66.8447 109.515C66.8174 109.734 66.7627 109.952 66.6807 110.171C66.6261 110.362 66.5167 110.554 66.3527 110.745C66.2161 110.964 66.0111 111.128 65.7377 111.237C65.4917 111.346 65.2457 111.346 64.9997 111.237C64.5351 111.128 64.2754 110.759 64.2207 110.13C64.1114 109.119 63.9884 108.107 63.8517 107.096C63.7424 106.085 63.6194 105.073 63.4827 104.062C63.3734 103.461 63.3051 102.873 63.2777 102.299C63.2504 101.725 63.1684 101.165 63.0317 100.618C62.9224 100.618 62.8541 100.659 62.8267 100.741C62.7994 100.796 62.7721 100.85 62.7447 100.905C62.1434 102.299 61.6514 103.72 61.2687 105.169C60.9134 106.59 60.6674 108.066 60.5307 109.597C60.5034 110.034 60.4487 110.472 60.3667 110.909C60.3121 111.346 60.2574 111.784 60.2027 112.221C60.0661 113.096 59.5741 113.574 58.7267 113.656C58.3987 113.656 58.0844 113.519 57.7837 113.246C57.4831 113 57.3054 112.686 57.2507 112.303C57.1687 111.866 57.1004 111.442 57.0457 111.032C57.0184 110.622 56.9911 110.198 56.9637 109.761C56.8544 108.804 56.7451 107.848 56.6357 106.891C56.5264 105.907 56.4307 104.937 56.3487 103.98C56.2394 102.859 56.1301 101.752 56.0207 100.659C55.9114 99.5383 55.8294 98.4313 55.7747 97.338C55.7201 96.354 55.6791 95.3837 55.6517 94.427C55.6244 93.4703 55.6107 92.5 55.6107 91.516C55.6107 90.4773 55.6107 89.425 55.6107 88.359C55.6381 87.2657 55.7611 86.1997 55.9797 85.161C56.0344 84.833 56.1027 84.5187 56.1847 84.218C56.2941 83.89 56.4444 83.5893 56.6357 83.316C56.8544 82.988 57.1277 82.742 57.4557 82.578C57.8111 82.414 58.1527 82.4003 58.4807 82.537C59.2187 82.701 59.5877 83.234 59.5877 84.136C59.6424 85.7487 59.6151 87.375 59.5057 89.015C59.4237 90.655 59.3964 92.2813 59.4237 93.894C59.4511 94.878 59.4511 95.862 59.4237 96.846C59.4237 97.83 59.4237 98.814 59.4237 99.798H59.5877ZM78.4631 102.135C77.9711 102.572 77.6158 103.023 77.3971 103.488C76.8231 104.499 76.3584 105.565 76.0031 106.686C75.6478 107.807 75.3744 108.955 75.1831 110.13C75.1558 110.403 75.1011 110.677 75.0191 110.95C74.9371 111.223 74.8278 111.469 74.6911 111.688C74.2811 112.371 73.7344 112.672 73.0511 112.59C72.6958 112.59 72.3951 112.494 72.1491 112.303C71.9031 112.112 71.6844 111.866 71.4931 111.565C71.3838 111.319 71.3018 111.059 71.2471 110.786C71.2198 110.513 71.1788 110.239 71.1241 109.966C70.9874 108.873 70.8371 107.779 70.6731 106.686C70.5364 105.565 70.4408 104.458 70.3861 103.365C70.3314 102.627 70.3314 101.889 70.3861 101.151C70.4408 100.413 70.5228 99.675 70.6321 98.937C70.6321 98.8003 70.6594 98.6773 70.7141 98.568C70.7688 98.4313 70.8098 98.3083 70.8371 98.199C71.0831 97.5157 71.5341 97.215 72.1901 97.297C72.4634 97.3243 72.7094 97.4473 72.9281 97.666C73.1468 97.8847 73.2698 98.1443 73.2971 98.445C73.3791 99.101 73.4474 99.7433 73.5021 100.372C73.5841 101.001 73.6798 101.629 73.7891 102.258C73.8164 102.367 73.8301 102.504 73.8301 102.668C73.8301 102.805 73.8711 102.941 73.9531 103.078C74.0898 103.023 74.1718 102.955 74.1991 102.873C74.2264 102.764 74.2538 102.668 74.2811 102.586C74.5544 102.039 74.8278 101.506 75.1011 100.987C75.3744 100.44 75.6888 99.9483 76.0441 99.511C76.2081 99.2923 76.3721 99.0873 76.5361 98.896C76.7001 98.6773 76.8914 98.486 77.1101 98.322C77.8208 97.748 78.5861 97.5293 79.4061 97.666C80.2261 97.7753 80.8958 98.2263 81.4151 99.019C81.6611 99.4563 81.8524 99.921 81.9891 100.413C82.1258 100.878 82.2214 101.356 82.2761 101.848C82.4128 102.668 82.5221 103.502 82.6041 104.349C82.7134 105.169 82.8228 105.989 82.9321 106.809C82.9868 107.301 83.0551 107.793 83.1371 108.285C83.2464 108.75 83.3284 109.228 83.3831 109.72C83.4378 109.911 83.5061 110.075 83.5881 110.212C83.6701 110.349 83.8068 110.485 83.9981 110.622C84.5721 110.923 84.7498 111.401 84.5311 112.057C84.2851 112.74 83.8614 113.164 83.2601 113.328C82.6588 113.492 82.0848 113.355 81.5381 112.918C81.2921 112.699 81.0871 112.467 80.9231 112.221C80.7591 111.975 80.6088 111.715 80.4721 111.442C80.0348 110.649 79.7068 109.843 79.4881 109.023C79.2694 108.203 79.1054 107.342 78.9961 106.44C78.9141 105.811 78.8458 105.169 78.7911 104.513C78.7364 103.857 78.6408 103.215 78.5041 102.586C78.5041 102.531 78.4904 102.477 78.4631 102.422C78.4631 102.34 78.4631 102.244 78.4631 102.135ZM94.3826 109.843C94.1913 109.98 94.041 110.157 93.9316 110.376C93.8496 110.567 93.7403 110.731 93.6036 110.868C93.3303 111.278 93.0296 111.661 92.7016 112.016C92.3736 112.344 91.9773 112.604 91.5126 112.795C90.7473 113.15 89.9683 113.178 89.1756 112.877C88.4103 112.549 87.8773 111.989 87.5766 111.196C86.9753 109.665 86.7976 108.203 87.0436 106.809C87.317 105.415 87.9456 104.089 88.9296 102.832C89.4763 102.149 90.1186 101.67 90.8566 101.397C91.622 101.096 92.4556 101.042 93.3576 101.233C93.4123 101.233 93.4533 101.247 93.4806 101.274C93.5353 101.274 93.59 101.274 93.6446 101.274C93.754 101.055 93.7813 100.864 93.7266 100.7C93.672 100.509 93.631 100.317 93.6036 100.126C93.4943 99.5247 93.3576 98.9507 93.1936 98.404C93.057 97.8573 92.8793 97.3243 92.6606 96.805C92.3326 96.0943 92.032 95.7117 91.7586 95.657C91.5126 95.6023 91.1026 95.821 90.5286 96.313C89.6266 97.0783 88.8476 97.994 88.1916 99.06C87.973 99.3333 87.8636 99.6067 87.8636 99.88C87.8636 100.481 87.5766 100.864 87.0026 101.028C86.8113 101.083 86.579 101.055 86.3056 100.946C86.0323 100.837 85.8136 100.686 85.6496 100.495C85.2943 99.9483 85.1713 99.347 85.2806 98.691C85.39 98.0623 85.5676 97.4747 85.8136 96.928C86.0596 96.354 86.3603 95.821 86.7156 95.329C87.0983 94.7823 87.5083 94.2903 87.9456 93.853C88.383 93.3883 88.875 92.9783 89.4216 92.623C90.2963 92.0763 91.2393 91.844 92.2506 91.926C93.2893 91.9807 94.205 92.459 94.9976 93.361C95.353 93.7163 95.6263 94.1127 95.8176 94.55C96.0363 94.96 96.2413 95.3973 96.4326 95.862C96.7333 96.7093 96.9793 97.5703 97.1706 98.445C97.3893 99.3197 97.5533 100.208 97.6626 101.11C97.7993 102.34 97.9223 103.556 98.0316 104.759C98.141 105.962 98.2366 107.178 98.3186 108.408C98.4006 109.119 98.4006 109.843 98.3186 110.581C98.264 111.401 97.9223 111.989 97.2936 112.344C96.665 112.672 96.009 112.617 95.3256 112.18C95.0523 111.989 94.861 111.756 94.7516 111.483C94.6423 111.21 94.5603 110.923 94.5056 110.622C94.4783 110.485 94.4646 110.362 94.4646 110.253C94.4646 110.116 94.4373 109.98 94.3826 109.843ZM90.8976 108.9C91.335 108.435 91.7586 107.984 92.1686 107.547C92.5786 107.082 92.934 106.577 93.2346 106.03C93.3166 105.866 93.303 105.675 93.1936 105.456C93.1116 105.21 92.975 105.032 92.7836 104.923C92.5923 104.786 92.442 104.773 92.3326 104.882C92.2506 104.964 92.1413 105.032 92.0046 105.087C91.9773 105.142 91.9363 105.196 91.8816 105.251C91.827 105.306 91.786 105.36 91.7586 105.415C91.4033 105.934 91.1436 106.481 90.9796 107.055C90.8156 107.602 90.7883 108.217 90.8976 108.9ZM103.136 111.729C102.698 111.784 102.316 111.633 101.988 111.278C101.66 110.923 101.496 110.567 101.496 110.212C101.468 109.775 101.591 109.406 101.865 109.105C102.165 108.777 102.534 108.586 102.972 108.531C103.3 108.504 103.628 108.627 103.956 108.9C104.311 109.146 104.516 109.46 104.571 109.843V110.499C104.516 110.964 104.379 111.292 104.161 111.483C103.942 111.647 103.6 111.729 103.136 111.729ZM109.302 111.729C108.864 111.784 108.482 111.633 108.154 111.278C107.826 110.923 107.662 110.567 107.662 110.212C107.634 109.775 107.757 109.406 108.031 109.105C108.331 108.777 108.7 108.586 109.138 108.531C109.466 108.504 109.794 108.627 110.122 108.9C110.477 109.146 110.682 109.46 110.737 109.843V110.499C110.682 110.964 110.545 111.292 110.327 111.483C110.108 111.647 109.766 111.729 109.302 111.729ZM115.468 111.729C115.03 111.784 114.648 111.633 114.32 111.278C113.992 110.923 113.828 110.567 113.828 110.212C113.8 109.775 113.923 109.406 114.197 109.105C114.497 108.777 114.866 108.586 115.304 108.531C115.632 108.504 115.96 108.627 116.288 108.9C116.643 109.146 116.848 109.46 116.903 109.843V110.499C116.848 110.964 116.711 111.292 116.493 111.483C116.274 111.647 115.932 111.729 115.468 111.729Z" fill="white"/>
</svg>
