<svg width="366" height="300" viewBox="0 0 366 300" fill="none" xmlns="http://www.w3.org/2000/svg">
<path d="M41.7243 77.4401C52.8843 84.8201 69.9843 88.7801 68.5443 107.68C67.6443 119.02 58.4643 129.82 38.3043 129.82C0.684301 129.82 6.0843 88.6 23.1843 88.6C34.7043 88.6 32.7243 92.5601 30.9243 99.7601C29.6643 104.62 32.1843 109.48 39.2043 109.48C48.5643 109.48 53.0643 98.32 39.7443 92.74C0.504301 76.54 11.1243 41.8 38.1243 41.8C68.7243 41.8 66.3843 77.2601 52.1643 77.2601C44.9643 77.2601 41.0043 73.4801 41.9043 68.4401C44.7843 66.4601 47.4843 56.7401 38.1243 56.7401C29.8443 56.7401 28.4043 68.8001 41.7243 77.4401ZM97.8731 64.4801C112.993 64.4801 125.233 79.06 125.233 97.24C125.233 115.24 112.993 129.82 97.8731 129.82C82.7531 129.82 70.5131 115.24 70.5131 97.24C70.5131 79.06 82.7531 64.4801 97.8731 64.4801ZM97.8731 110.92C110.833 110.92 110.653 83.38 97.8731 83.38C85.0931 83.38 84.9131 110.92 97.8731 110.92ZM181.697 117.76C182.957 121.36 179.717 129.82 169.097 129.82C151.817 129.82 158.297 98.3201 163.157 86.4401C164.957 81.9401 164.237 79.24 162.437 78.52C156.317 76.36 146.057 94.18 146.057 103.36C146.597 109.48 150.017 112.54 150.017 118.66C150.017 123.16 146.597 129.82 137.777 129.82C129.857 129.82 125.357 124.96 125.357 118.84C125.357 111.28 130.037 108.94 130.037 102.1C130.037 95.98 131.297 83.74 128.957 79.42C126.797 74.92 127.877 64.4801 139.397 64.4801C148.577 64.4801 151.457 72.58 149.657 79.06C149.297 80.68 148.757 82.12 148.397 83.56C155.237 66.82 166.757 61.06 175.757 66.28C180.437 68.98 180.977 76.9 179.717 82.84C178.997 86.26 177.377 99.2201 177.377 105.88C177.377 114.16 180.077 113.26 181.697 117.76ZM242.212 64.4801C250.492 64.4801 252.292 74.9201 249.952 77.6201C243.832 84.6401 241.492 98.32 242.212 112C243.292 131.08 242.032 159.52 214.672 159.52C181.732 159.52 180.832 130.54 194.152 130.54C203.332 130.54 198.292 142.78 213.232 142.78C227.452 142.78 224.212 120.64 226.192 107.86C223.672 119.02 217.192 129.82 206.212 129.82C174.532 129.82 177.772 64.4801 209.992 64.4801C224.392 64.4801 229.432 78.7001 229.972 81.4001C231.232 77.2601 233.572 64.4801 242.212 64.4801ZM222.412 96.34C222.952 88.96 218.812 83.02 213.232 83.02C207.472 83.02 202.612 88.96 202.072 96.34C201.532 103.54 205.672 109.48 211.252 109.48C216.832 109.48 221.872 103.54 222.412 96.34Z" fill="black"/>
<path d="M163.621 179.44C174.781 186.82 191.881 190.78 190.441 209.68C189.541 221.02 180.361 231.82 160.201 231.82C122.581 231.82 127.981 190.6 145.081 190.6C156.601 190.6 154.621 194.56 152.821 201.76C151.561 206.62 154.081 211.48 161.101 211.48C170.461 211.48 174.961 200.32 161.641 194.74C122.401 178.54 133.021 143.8 160.021 143.8C190.621 143.8 188.281 179.26 174.061 179.26C166.861 179.26 162.901 175.48 163.801 170.44C166.681 168.46 169.381 158.74 160.021 158.74C151.741 158.74 150.301 170.8 163.621 179.44ZM219.769 166.48C234.889 166.48 247.129 181.06 247.129 199.24C247.129 217.24 234.889 231.82 219.769 231.82C204.649 231.82 192.409 217.24 192.409 199.24C192.409 181.06 204.649 166.48 219.769 166.48ZM219.769 212.92C232.729 212.92 232.549 185.38 219.769 185.38C206.989 185.38 206.809 212.92 219.769 212.92ZM303.191 218.5C307.511 219.76 303.551 232 293.651 232C283.211 232 282.491 223.54 283.031 215.44C283.571 207.34 284.831 203.74 284.831 199.96C284.831 204.28 279.791 232 264.131 232C246.671 232 248.291 212.74 250.091 206.26C251.891 199.78 252.971 187.72 252.071 184.84C249.191 177.64 248.291 166.66 259.091 166.66C271.331 166.66 269.891 175.12 268.451 185.2C267.011 195.1 263.771 211.48 270.791 211.48C276.551 211.48 284.111 197.44 284.111 189.16C284.111 182.5 281.591 181.24 281.591 174.76C281.591 170.26 285.371 166.66 292.751 166.66C301.031 166.66 303.731 172.24 303.731 176.74C303.731 181.24 299.411 190.6 299.411 198.34C299.411 206.26 297.971 216.7 303.191 218.5ZM322.821 143.8C332.001 143.8 337.221 151.36 334.161 160.36C330.921 169.18 330.741 191.68 330.741 191.68C330.741 191.68 331.101 210.04 333.261 217.24C333.981 219.94 334.521 231.82 320.661 231.82C315.801 231.82 306.261 227.86 309.141 217.24C311.661 208.24 313.461 204.28 313.461 191.68C313.461 179.08 313.281 169 310.221 159.64C307.881 152.08 313.641 143.8 322.821 143.8Z" fill="black"/>
<path d="M267.833 107.24C275.393 107.24 281.513 114.53 281.513 123.62C281.513 132.62 275.393 139.91 267.833 139.91C260.273 139.91 254.153 132.62 254.153 123.62C254.153 114.53 260.273 107.24 267.833 107.24ZM267.833 130.46C274.313 130.46 274.223 116.69 267.833 116.69C261.443 116.69 261.353 130.46 267.833 130.46ZM290.215 101.39C287.425 101.39 288.685 108.77 290.485 108.77H295.795C296.515 108.77 297.145 109.31 297.145 110.03V111.02C297.145 111.74 296.515 112.37 295.795 112.37H293.005C293.005 115.07 293.005 119.12 293.005 120.92C293.005 126.5 293.545 129.65 294.355 132.89C295.255 136.13 293.815 140 289.045 140C283.555 140 282.655 135.77 283.465 132.8C284.545 128.48 285.805 125.33 285.805 121.19V112.37H282.925C282.205 112.37 281.575 111.74 281.575 111.02V110.03C281.575 109.31 282.205 108.77 282.925 108.77H285.715C283.195 107.24 280.765 93.8301 291.295 93.8301C296.245 93.8301 298.855 97.3401 298.855 101.84C298.855 106.34 293.095 106.61 292.105 105.08C290.755 103.28 291.745 101.39 290.215 101.39Z" fill="black"/>
<path d="M67.0672 176.17C67.0672 176.17 67.6071 183.91 59.3271 183.91C53.7471 183.91 51.7671 178.6 53.0271 173.74C54.2871 169.24 54.4671 157.81 54.5571 155.11H51.6771C50.9571 155.11 50.3271 154.48 50.3271 153.76V152.77C50.3271 151.96 50.9571 151.33 51.6771 151.33H52.0371C52.0371 151.33 54.5571 150.25 55.0971 148.09C55.6371 145.93 57.2571 139.9 62.6571 139.9C68.1471 139.9 67.0671 146.29 65.0871 148.18C63.0171 150.16 58.9671 151.33 56.2671 151.33H64.7271C65.4471 151.33 66.0771 151.96 66.0771 152.77V153.76C66.0771 154.48 65.4471 155.11 64.7271 155.11H62.5671C62.4771 159.16 62.2071 168.43 62.2071 172.66C62.2071 175.63 64.2772 177.25 67.0672 176.17ZM95.171 176.35C95.891 177.97 96.161 183.91 89.501 183.91C82.841 183.91 83.021 178.87 83.921 175.9C84.911 172.39 85.361 167.89 85.361 166.72C85.361 165.64 86.981 159.07 84.641 158.53C82.661 158.08 79.511 163.84 79.511 168.25C79.511 170.95 79.241 174.55 79.781 176.26C80.501 178.24 79.6911 183.91 74.291 183.91C68.8011 183.91 67.451 179.14 68.441 176.35C69.431 173.92 71.051 170.23 71.051 166.81C71.051 161.86 71.5011 154.93 70.1511 151.33C68.4411 146.74 68.171 139.9 75.731 139.9C80.231 139.9 83.201 141.97 80.591 151.24C79.511 155.11 79.061 158.89 79.061 160.42C79.061 160.42 81.221 149.8 89.501 151.24C95.441 152.32 94.541 161.5 94.541 164.83C94.541 167.89 93.911 173.74 95.171 176.35ZM119.059 170.68C124.999 170.68 125.629 183.91 110.959 183.91C90.3496 183.91 92.7796 151.24 111.589 151.24C128.689 151.24 126.439 170.86 111.949 170.86C109.879 170.86 108.169 170.32 107.089 169.87C107.629 172.39 109.159 174.37 111.949 174.37C116.719 174.37 114.919 170.68 119.059 170.68ZM112.039 160.42C109.159 160.42 107.359 163.39 106.999 166.54C108.079 166.9 109.429 166.99 110.599 166.9C116.719 166.27 115.009 160.42 112.039 160.42Z" fill="black"/>
<path d="M366 214.232L361.73 215.309C357.37 216.408 354.064 219.834 353.247 224.1L352.5 228L351.751 224.095C350.932 219.832 347.627 216.408 343.27 215.309L339 214.232L343.277 213.178C347.631 212.105 350.953 208.712 351.805 204.464L352.5 201L353.192 204.459C354.043 208.709 357.366 212.105 361.723 213.178L366 214.232Z" fill="black"/>
</svg>
