<?xml version="1.0" encoding="UTF-8"?>
<svg width="24px" height="24px" viewBox="0 0 24 24" version="1.1" xmlns="http://www.w3.org/2000/svg">
    <g stroke="none" stroke-width="1" fill="none" fill-rule="evenodd">
        <path d="M20.4017,3.59825 C18.1557,1.35225 15.1717,0.11325 12.0007,0.11325 C5.44469,0.11325 0.112689,5.44525 0.112689,12.0013 C0.112689,14.1273 0.701689,16.2063 1.82169,18.0363 L0.0106887,24.1133 L6.24169,22.3293 C8.00169,23.3463 9.97869,23.8913 12.0007,23.8913 L12.0017,23.8913 C18.5567,23.8913 24.0007,18.5583 24.0007,12.0023 C24.0007,8.83125 22.6477,5.84525 20.4017,3.59825 Z M12.0007,21.8773 C10.2087,21.8773 8.45869,21.3573 6.93669,20.3783 L6.57669,20.1663 L2.84969,21.2353 L3.93669,17.5913 L3.70269,17.2183 C2.62869,15.6353 2.05969,13.8083 2.05969,11.9293 C2.05969,6.48625 6.48469,2.06125 12.0017,2.06125 C14.6307,2.06125 17.1047,3.09825 18.9787,4.97225 C20.8527,6.84625 21.9887,9.32025 21.9877,11.9493 C21.9867,17.5163 17.5617,21.8773 12.0007,21.8773 Z M17.4237,14.5163 C17.1417,14.3753 15.6797,13.6563 15.4197,13.5563 C15.1587,13.4573 14.9717,13.4073 14.7847,13.6893 C14.5977,13.9713 14.0277,14.6403 13.8617,14.8273 C13.6967,15.0143 13.5307,15.0393 13.2487,14.8983 C12.9667,14.7573 11.9897,14.4473 10.8347,13.4173 C9.93669,12.6173 9.32969,11.6273 9.16369,11.3453 C8.99769,11.0633 9.14569,10.9083 9.28669,10.7653 C9.41469,10.6363 9.57069,10.4273 9.71169,10.2613 C9.85269,10.0953 9.90269,9.97125 10.0017,9.78425 C10.1007,9.59725 10.0507,9.43125 9.97569,9.29025 C9.90069,9.14925 9.29769,7.68725 9.06069,7.12325 C8.82969,6.57525 8.59569,6.65025 8.42069,6.64225 C8.25569,6.63425 8.06869,6.63425 7.88169,6.63425 C7.69469,6.63425 7.38269,6.70925 7.12169,6.99125 C6.86069,7.27325 6.09169,7.99225 6.09169,9.45425 C6.09169,10.9163 7.13869,12.3283 7.27969,12.5153 C7.42069,12.7023 9.32669,15.6493 12.2517,16.9363 C12.9467,17.2363 13.4917,17.4163 13.9147,17.5503 C14.6097,17.7713 15.2437,17.7363 15.7447,17.6593 C16.3027,17.5733 17.4947,16.9363 17.7317,16.2723 C17.9687,15.6083 17.9687,15.0443 17.8937,14.9273 C17.8187,14.8103 17.6317,14.7573 17.4237,14.5163 Z" fill="#000000"></path>
    </g>
</svg>
